<svg width="160" height="57" viewBox="0 0 160 57" fill="none" xmlns="http://www.w3.org/2000/svg">
<path d="M95.644 45.08L92.704 53H91.204L88.264 45.08H89.632L91.48 50.348L91.96 51.92L92.44 50.36L94.288 45.08H95.644ZM96.7502 53V52.064C97.5102 51.52 98.1462 51.04 98.6582 50.624C99.1782 50.208 99.5942 49.824 99.9062 49.472C100.218 49.12 100.442 48.788 100.578 48.476C100.722 48.156 100.794 47.832 100.794 47.504C100.794 47.08 100.662 46.736 100.398 46.472C100.134 46.208 99.7662 46.076 99.2942 46.076C98.7982 46.076 98.4022 46.244 98.1062 46.58C97.8182 46.908 97.6542 47.36 97.6142 47.936L96.4982 47.42C96.5542 46.916 96.7022 46.48 96.9422 46.112C97.1822 45.744 97.5062 45.46 97.9142 45.26C98.3302 45.06 98.8102 44.96 99.3542 44.96C99.8022 44.96 100.194 45.024 100.53 45.152C100.874 45.28 101.162 45.46 101.394 45.692C101.626 45.916 101.802 46.18 101.922 46.484C102.05 46.788 102.114 47.112 102.114 47.456C102.114 47.96 101.99 48.448 101.742 48.92C101.494 49.384 101.102 49.86 100.566 50.348C100.03 50.836 99.3262 51.36 98.4542 51.92V51.944C98.5502 51.928 98.6822 51.92 98.8502 51.92C99.0182 51.912 99.1862 51.908 99.3542 51.908C99.5222 51.9 99.6582 51.896 99.7622 51.896H102.258V53H96.7502ZM114.197 53H112.841L112.085 50.924H108.761L108.005 53H106.685L109.673 45.08H111.209L114.197 53ZM109.121 49.88H111.725L110.429 46.184L109.121 49.88ZM115.422 53V47H116.562L116.646 48.56L116.478 48.392C116.59 48.048 116.75 47.764 116.958 47.54C117.174 47.308 117.426 47.14 117.714 47.036C118.01 46.932 118.322 46.88 118.65 46.88C119.074 46.88 119.454 46.964 119.79 47.132C120.134 47.292 120.406 47.536 120.606 47.864C120.806 48.192 120.906 48.608 120.906 49.112V53H119.622V49.508C119.622 48.916 119.498 48.508 119.25 48.284C119.01 48.052 118.706 47.936 118.338 47.936C118.074 47.936 117.818 48 117.57 48.128C117.322 48.248 117.114 48.444 116.946 48.716C116.786 48.988 116.706 49.352 116.706 49.808V53H115.422ZM126.319 49.148C126.319 48.748 126.207 48.44 125.983 48.224C125.767 48 125.467 47.888 125.083 47.888C124.723 47.888 124.415 47.972 124.159 48.14C123.903 48.308 123.715 48.58 123.595 48.956L122.515 48.5C122.667 48.012 122.963 47.62 123.403 47.324C123.851 47.028 124.427 46.88 125.131 46.88C125.611 46.88 126.035 46.96 126.403 47.12C126.771 47.272 127.059 47.504 127.267 47.816C127.483 48.128 127.591 48.528 127.591 49.016V51.692C127.591 51.988 127.739 52.136 128.035 52.136C128.179 52.136 128.319 52.116 128.455 52.076L128.383 52.964C128.199 53.052 127.967 53.096 127.687 53.096C127.431 53.096 127.199 53.052 126.991 52.964C126.791 52.868 126.631 52.728 126.511 52.544C126.399 52.352 126.343 52.116 126.343 51.836V51.752L126.607 51.74C126.535 52.052 126.387 52.312 126.163 52.52C125.939 52.72 125.679 52.872 125.383 52.976C125.087 53.072 124.787 53.12 124.483 53.12C124.107 53.12 123.767 53.06 123.463 52.94C123.167 52.82 122.931 52.64 122.755 52.4C122.587 52.152 122.503 51.848 122.503 51.488C122.503 51.04 122.647 50.672 122.935 50.384C123.231 50.096 123.647 49.9 124.183 49.796L126.511 49.34L126.499 50.24L124.807 50.588C124.471 50.652 124.219 50.744 124.051 50.864C123.883 50.984 123.799 51.16 123.799 51.392C123.799 51.616 123.883 51.796 124.051 51.932C124.227 52.06 124.459 52.124 124.747 52.124C124.947 52.124 125.139 52.1 125.323 52.052C125.515 52.004 125.687 51.928 125.839 51.824C125.991 51.712 126.107 51.572 126.187 51.404C126.275 51.228 126.319 51.02 126.319 50.78V49.148ZM130.943 44.3V51.32C130.943 51.616 130.995 51.82 131.099 51.932C131.203 52.044 131.375 52.1 131.615 52.1C131.759 52.1 131.879 52.092 131.975 52.076C132.079 52.052 132.207 52.012 132.359 51.956L132.215 52.916C132.079 52.98 131.923 53.028 131.747 53.06C131.571 53.1 131.395 53.12 131.219 53.12C130.683 53.12 130.287 52.984 130.031 52.712C129.783 52.432 129.659 52.004 129.659 51.428V44.3H130.943ZM138.432 47L135.804 53.708C135.628 54.172 135.436 54.54 135.228 54.812C135.028 55.084 134.796 55.28 134.532 55.4C134.268 55.52 133.96 55.58 133.608 55.58C133.32 55.58 133.052 55.54 132.804 55.46C132.564 55.388 132.352 55.288 132.168 55.16L132.48 54.164C132.632 54.292 132.792 54.388 132.96 54.452C133.136 54.516 133.324 54.548 133.524 54.548C133.74 54.548 133.932 54.488 134.1 54.368C134.276 54.256 134.432 54.028 134.568 53.684L134.832 53.036L134.196 51.548L132.324 47H133.764L135.096 50.768L135.444 51.896L135.84 50.66L137.1 47H138.432ZM141.279 45.236V51.2C141.279 51.496 141.355 51.712 141.507 51.848C141.667 51.984 141.879 52.052 142.143 52.052C142.359 52.052 142.547 52.02 142.707 51.956C142.867 51.884 143.015 51.788 143.151 51.668L143.439 52.604C143.255 52.764 143.027 52.892 142.755 52.988C142.491 53.076 142.195 53.12 141.867 53.12C141.523 53.12 141.207 53.064 140.919 52.952C140.631 52.84 140.407 52.66 140.247 52.412C140.087 52.156 140.003 51.824 139.995 51.416V45.596L141.279 45.236ZM143.343 47V48.008H138.843V47H143.343ZM145.261 45.992C144.981 45.992 144.765 45.924 144.613 45.788C144.469 45.644 144.397 45.444 144.397 45.188C144.397 44.932 144.469 44.736 144.613 44.6C144.765 44.464 144.981 44.396 145.261 44.396C145.533 44.396 145.741 44.464 145.885 44.6C146.037 44.736 146.113 44.932 146.113 45.188C146.113 45.444 146.037 45.644 145.885 45.788C145.741 45.924 145.533 45.992 145.261 45.992ZM145.897 47V53H144.613V47H145.897ZM150.498 46.88C150.978 46.88 151.386 46.952 151.722 47.096C152.066 47.232 152.354 47.428 152.586 47.684C152.818 47.94 152.994 48.232 153.114 48.56L151.902 49.04C151.798 48.672 151.63 48.392 151.398 48.2C151.174 48 150.878 47.9 150.51 47.9C150.15 47.9 149.842 47.984 149.586 48.152C149.33 48.312 149.134 48.548 148.998 48.86C148.87 49.172 148.806 49.556 148.806 50.012C148.806 50.46 148.874 50.84 149.01 51.152C149.146 51.464 149.342 51.7 149.598 51.86C149.854 52.02 150.158 52.1 150.51 52.1C150.782 52.1 151.018 52.056 151.218 51.968C151.418 51.872 151.582 51.74 151.71 51.572C151.846 51.396 151.938 51.184 151.986 50.936L153.15 51.332C153.038 51.692 152.862 52.008 152.622 52.28C152.39 52.544 152.098 52.752 151.746 52.904C151.394 53.048 150.99 53.12 150.534 53.12C149.942 53.12 149.418 52.996 148.962 52.748C148.506 52.5 148.15 52.144 147.894 51.68C147.646 51.208 147.522 50.648 147.522 50C147.522 49.352 147.646 48.796 147.894 48.332C148.15 47.86 148.502 47.5 148.95 47.252C149.406 47.004 149.922 46.88 150.498 46.88ZM156.924 53.12C156.324 53.12 155.776 53.004 155.28 52.772C154.784 52.54 154.392 52.212 154.104 51.788L154.992 51.02C155.168 51.348 155.42 51.612 155.748 51.812C156.084 52.004 156.484 52.1 156.948 52.1C157.316 52.1 157.608 52.036 157.824 51.908C158.04 51.78 158.148 51.6 158.148 51.368C158.148 51.216 158.096 51.084 157.992 50.972C157.896 50.852 157.708 50.76 157.428 50.696L156.168 50.432C155.528 50.304 155.072 50.1 154.8 49.82C154.528 49.532 154.392 49.168 154.392 48.728C154.392 48.4 154.488 48.096 154.68 47.816C154.872 47.536 155.152 47.312 155.52 47.144C155.896 46.968 156.344 46.88 156.864 46.88C157.464 46.88 157.976 46.988 158.4 47.204C158.824 47.412 159.148 47.712 159.372 48.104L158.484 48.848C158.332 48.528 158.108 48.292 157.812 48.14C157.516 47.98 157.208 47.9 156.888 47.9C156.632 47.9 156.412 47.932 156.228 47.996C156.044 48.06 155.904 48.148 155.808 48.26C155.712 48.372 155.664 48.504 155.664 48.656C155.664 48.816 155.724 48.956 155.844 49.076C155.964 49.196 156.18 49.288 156.492 49.352L157.86 49.64C158.436 49.752 158.84 49.944 159.072 50.216C159.312 50.48 159.432 50.804 159.432 51.188C159.432 51.572 159.332 51.912 159.132 52.208C158.932 52.496 158.644 52.72 158.268 52.88C157.892 53.04 157.444 53.12 156.924 53.12Z" fill="#868787"/>
<path d="M15.8063 26.4893L35.4915 37.8398C35.649 37.9293 35.8269 37.9761 36.0077 37.9756C36.1886 37.9751 36.3663 37.9274 36.5232 37.837C36.6802 37.7466 36.8111 37.6168 36.9031 37.4602C36.9951 37.3036 37.045 37.1257 37.0479 36.9439L37.0513 16.0417C37.0493 15.8595 36.9999 15.681 36.9082 15.5239C36.8165 15.3668 36.6855 15.2365 36.5283 15.1459C36.3711 15.0553 36.193 15.0076 36.0118 15.0075C35.8306 15.0074 35.6525 15.0548 35.4952 15.1452L15.8063 26.4893Z" fill="#31CB9E"/>
<path d="M34.3476 10.2537L21.2799 0.210655C21.1405 0.105358 20.9771 0.0368035 20.8046 0.0112356C20.6321 -0.0143323 20.456 0.003899 20.2922 0.0642694C20.1285 0.12464 19.9825 0.225231 19.8673 0.356879C19.7521 0.488527 19.6716 0.64705 19.633 0.818007L14.8549 23.1777L34.2416 11.9855C34.3915 11.9012 34.518 11.7804 34.6094 11.6342C34.7008 11.488 34.7543 11.3211 34.7648 11.1487C34.7754 10.9763 34.7427 10.8041 34.6698 10.6477C34.5969 10.4913 34.4861 10.3558 34.3476 10.2537V10.2537Z" fill="#31CB9E"/>
<path d="M21.2712 52.7845L34.3724 42.7306C34.5078 42.6264 34.6157 42.4904 34.6866 42.3345C34.7574 42.1786 34.789 42.0075 34.7786 41.8364C34.7681 41.6653 34.716 41.4994 34.6268 41.3534C34.5376 41.2073 34.414 41.0855 34.2669 40.9988L14.8536 29.8154L19.6396 52.1767C19.6746 52.3481 19.7525 52.5077 19.8659 52.6405C19.9793 52.7734 20.1244 52.875 20.2876 52.9358C20.4509 52.9966 20.6268 53.0146 20.7989 52.9882C20.971 52.9617 21.1335 52.8916 21.2712 52.7845V52.7845Z" fill="#31CB9E"/>
<path d="M10.7597 26.4886L15.9158 2.39731C15.9606 2.18865 15.9402 1.97117 15.8575 1.77456C15.7748 1.57795 15.6337 1.4118 15.4536 1.29878C15.2735 1.18576 15.0631 1.13138 14.8511 1.14307C14.639 1.15476 14.4358 1.23194 14.269 1.36409L1.07725 11.494C0.743022 11.751 0.472305 12.082 0.286179 12.4614C0.100052 12.8408 0.00353824 13.2582 0.00415445 13.6813L4.37658e-06 39.3381C-0.00074845 39.7611 0.09563 40.1786 0.281634 40.558C0.467638 40.9374 0.738248 41.2686 1.07239 41.5257L14.2609 51.6447C14.4289 51.7714 14.631 51.844 14.8407 51.8531C15.0505 51.8621 15.2581 51.8072 15.4362 51.6955C15.6144 51.5838 15.7548 51.4206 15.839 51.2272C15.9232 51.0338 15.9472 50.8194 15.908 50.612L10.7597 26.4886Z" fill="#31CB9E"/>
<path d="M113.428 19.4641C114.37 19.4447 115.301 19.6765 116.126 20.1359C116.95 20.5954 117.639 21.266 118.122 22.0798L116.491 23.3429C116.143 22.814 115.684 22.3677 115.147 22.0352C114.627 21.7235 114.032 21.5623 113.427 21.5694C112.882 21.5573 112.345 21.7076 111.884 22.0014C111.666 22.1459 111.49 22.3462 111.374 22.5818C111.257 22.8173 111.205 23.0796 111.223 23.3419C111.216 23.5909 111.269 23.838 111.377 24.062C111.482 24.2643 111.624 24.4448 111.796 24.5938C111.99 24.7613 112.205 24.903 112.435 25.0153C112.685 25.1412 112.956 25.2778 113.25 25.4252L114.881 26.1791C115.391 26.4119 115.884 26.6785 116.358 26.9773C116.766 27.2306 117.137 27.54 117.46 27.8967C117.748 28.221 117.979 28.5921 118.143 28.9942C118.31 29.4247 118.393 29.8838 118.386 30.3459C118.395 30.9542 118.266 31.5566 118.01 32.1076C117.767 32.6227 117.414 33.0769 116.974 33.437C116.512 33.8108 115.985 34.0961 115.42 34.2786C114.798 34.4826 114.146 34.5836 113.491 34.5776C112.354 34.5993 111.232 34.304 110.252 33.7242C109.316 33.1603 108.541 32.3622 108.004 31.4077L109.657 30.145C109.865 30.4584 110.097 30.7548 110.352 31.0315C110.606 31.3102 110.89 31.5592 111.2 31.774C111.515 31.9921 111.86 32.1639 112.224 32.2841C112.627 32.4139 113.047 32.4775 113.47 32.4723C114.119 32.5034 114.76 32.3121 115.288 31.9296C115.515 31.755 115.696 31.5279 115.817 31.2676C115.938 31.0072 115.995 30.7214 115.983 30.4343C115.988 30.1783 115.935 29.9245 115.829 29.6919C115.723 29.4742 115.573 29.2815 115.388 29.1263C115.179 28.9525 114.954 28.8003 114.715 28.672C114.458 28.5319 114.168 28.3879 113.845 28.24L112.237 27.4862C111.783 27.2739 111.342 27.0371 110.914 26.7767C110.518 26.5379 110.154 26.2471 109.834 25.9121C109.529 25.5926 109.283 25.2212 109.107 24.8153C108.924 24.377 108.834 23.9054 108.843 23.4304C108.834 22.8625 108.959 22.3007 109.207 21.7902C109.445 21.3072 109.784 20.8807 110.198 20.5387C110.63 20.1845 111.124 19.914 111.654 19.7408C112.226 19.553 112.826 19.4596 113.428 19.4641V19.4641Z" fill="#141927"/>
<path d="M131.346 30.5031L134.146 23.4563L136.593 23.457L131.808 34.5807H131.014L127.599 27.3115L124.226 34.5794H123.432L118.629 23.4539L121.097 23.4542L123.939 30.5682L127.225 23.2117H128.018L131.346 30.5031Z" fill="#141927"/>
<path d="M141.971 23.2146C142.585 23.2073 143.196 23.3048 143.778 23.503C144.301 23.6824 144.778 23.9735 145.177 24.3564C145.582 24.7565 145.894 25.2407 146.092 25.7751C146.324 26.4099 146.436 27.0825 146.423 27.7585L146.422 34.3401L144.261 34.3398V33.1212C143.866 33.5883 143.368 33.9562 142.807 34.1954C142.172 34.4629 141.489 34.5949 140.801 34.583C140.274 34.5894 139.75 34.5145 139.247 34.3609C138.811 34.2284 138.407 34.0098 138.057 33.7181C137.733 33.4465 137.473 33.1059 137.296 32.7208C137.115 32.317 137.025 31.8782 137.032 31.4354C137.015 30.9972 137.105 30.5615 137.293 30.1658C137.481 29.7702 137.763 29.4264 138.112 29.1642C138.964 28.5705 139.987 28.2783 141.022 28.3338L144.085 28.3341L144.086 27.6249C144.123 27.3103 144.089 26.9912 143.986 26.6918C143.883 26.3924 143.714 26.1204 143.491 25.8963C143.268 25.6723 142.997 25.5019 142.7 25.3982C142.402 25.2945 142.084 25.2601 141.772 25.2976C141.193 25.2841 140.621 25.4296 140.119 25.7184C139.602 26.0399 139.14 26.4441 138.752 26.915L137.429 25.541C137.935 24.789 138.627 24.182 139.436 23.7793C140.227 23.3998 141.094 23.2067 141.971 23.2146V23.2146ZM141.285 32.7881C141.654 32.7905 142.02 32.7268 142.366 32.5999C142.694 32.4804 142.996 32.3 143.258 32.068C143.515 31.8402 143.722 31.5609 143.865 31.2481C144.013 30.9251 144.088 30.5733 144.085 30.2177V30.0182L141.308 30.0179C140.812 29.9875 140.318 30.1029 139.886 30.3501C139.724 30.4581 139.593 30.6071 139.506 30.7821C139.419 30.9571 139.379 31.152 139.39 31.3474C139.38 31.5594 139.425 31.7705 139.522 31.9592C139.619 32.148 139.763 32.3077 139.941 32.4222C140.343 32.6758 140.811 32.8032 141.285 32.7881H141.285Z" fill="#141927"/>
<path d="M154.689 23.2159C155.42 23.2093 156.145 23.3567 156.816 23.6485C157.454 23.926 158.028 24.3334 158.502 24.8452C158.979 25.3677 159.353 25.9771 159.604 26.6407C159.874 27.3591 160.008 28.1219 160 28.8899C160.007 29.6615 159.873 30.4278 159.603 31.1502C159.353 31.82 158.975 32.4337 158.49 32.9563C158.002 33.4777 157.413 33.8917 156.758 34.172C156.104 34.4522 155.398 34.5927 154.687 34.5843C153.98 34.5925 153.279 34.4567 152.626 34.1852C152.022 33.9344 151.489 33.5387 151.072 33.0326L151.071 38.3288L148.758 38.3285L148.76 23.4588L150.898 23.4591L150.897 25.0325C151.299 24.4524 151.847 23.9898 152.485 23.6919C153.174 23.3684 153.928 23.2057 154.689 23.2159V23.2159ZM154.314 25.3432C153.912 25.3442 153.512 25.4153 153.134 25.5535C152.745 25.6938 152.389 25.9126 152.088 26.1963C151.764 26.5053 151.509 26.8788 151.338 27.2929C151.135 27.7994 151.037 28.3424 151.051 28.8883C151.037 29.4333 151.131 29.9756 151.326 30.4841C151.493 30.9014 151.744 31.2789 152.065 31.5924C152.364 31.8822 152.72 32.1049 153.111 32.2461C153.496 32.386 153.903 32.4573 154.313 32.457C154.755 32.4595 155.193 32.373 155.602 32.2024C156 32.0371 156.36 31.792 156.66 31.482C156.968 31.1608 157.208 30.7802 157.366 30.3632C157.703 29.4251 157.703 28.3982 157.367 27.46C157.21 27.0449 156.974 26.6647 156.672 26.3408C156.376 26.0289 156.02 25.7802 155.625 25.6096C155.211 25.43 154.765 25.3393 154.314 25.3433V25.3432Z" fill="#141927"/>
<path d="M54.3017 34.3245L51.9656 34.3242L51.9681 19.6981L54.3042 19.6984L54.3017 34.3245ZM57.2788 26.5465L64.0003 34.326L61.1127 34.3254L54.3689 26.5462L60.4761 19.6994L63.3415 19.7L57.2788 26.5465Z" fill="#141927"/>
<path d="M69.1361 35.5688C68.7955 36.4603 68.2292 37.2469 67.4933 37.8508C66.8083 38.3377 65.984 38.5866 65.1455 38.5597C64.8434 38.5588 64.5417 38.5403 64.2418 38.5042C63.9445 38.4691 63.65 38.4135 63.3603 38.338V36.3657C63.6249 36.3949 63.8601 36.417 64.066 36.4321C64.2714 36.4467 64.4696 36.454 64.6606 36.4541C65.1238 36.463 65.582 36.3566 65.9943 36.1443C66.4658 35.8391 66.8259 35.3881 67.0202 34.8592L67.4606 33.8399L63.1425 23.4456L65.6328 23.4462L68.7178 31.3802L71.9373 23.4471L74.4054 23.4474L69.1361 35.5688Z" fill="#141927"/>
<path d="M77.9317 24.7772C78.3566 24.28 78.8881 23.8861 79.4863 23.6252C80.1358 23.3394 80.8384 23.196 81.5473 23.2044C82.2587 23.1964 82.9639 23.3371 83.6184 23.6175C84.2729 23.898 84.8622 24.3121 85.3491 24.8337C85.8345 25.3566 86.2126 25.9705 86.4619 26.6403C86.7313 27.3628 86.8655 28.1291 86.858 28.9007C86.866 29.6687 86.7315 30.4314 86.4613 31.1498C86.2111 31.8133 85.8369 32.4226 85.359 32.9447C84.8879 33.4547 84.3176 33.8619 83.6835 34.1411C83.0164 34.4334 82.2953 34.5805 81.5676 34.5728C80.8042 34.5822 80.0481 34.4232 79.3524 34.107C78.7094 33.818 78.1568 33.3583 77.7541 32.7773V34.3284L75.6166 34.3281L75.6191 17.7075L77.933 17.7078L77.9317 24.7772ZM81.1722 25.3317C80.7626 25.3315 80.356 25.4026 79.9705 25.5419C79.5798 25.6835 79.2231 25.9062 78.9237 26.1956C78.6033 26.5091 78.3518 26.8865 78.1853 27.3036C77.9897 27.812 77.896 28.3542 77.9095 28.8991C77.8963 29.4486 77.9936 29.9951 78.1958 30.5057C78.3647 30.9244 78.6201 31.3022 78.9453 31.6141C79.2452 31.8973 79.6019 32.1126 79.9915 32.2457C80.371 32.3771 80.7696 32.4446 81.171 32.4454C81.6217 32.4493 82.0684 32.3588 82.4825 32.1797C82.8769 32.009 83.2331 31.7604 83.5299 31.4485C83.8319 31.1247 84.0679 30.7446 84.2245 30.3296C84.5615 29.3917 84.5618 28.3648 84.2252 27.4267C84.0675 27.0095 83.8274 26.6287 83.5195 26.3073C83.2191 25.9974 82.8591 25.7523 82.4615 25.5869C82.053 25.416 81.6146 25.3292 81.1722 25.3317V25.3317Z" fill="#141927"/>
<path d="M94.0007 23.2068C94.6872 23.2005 95.3683 23.3286 96.0062 23.5839C96.5993 23.8171 97.1382 24.1706 97.5894 24.6225C98.0406 25.0743 98.3943 25.6148 98.6285 26.2102C98.8818 26.8402 99.009 27.5142 99.003 28.1936C99.0036 28.4753 98.985 28.7567 98.9474 29.0359C98.9218 29.2452 98.8814 29.4525 98.8265 29.6561L90.759 29.6548C90.8783 30.4823 91.3034 31.2341 91.9496 31.7604C92.6181 32.2754 93.4433 32.5418 94.2851 32.5143C94.8758 32.5229 95.4617 32.4059 96.0043 32.171C96.5288 31.9357 97.0128 31.6179 97.4379 31.2296L98.5613 32.8254C97.9962 33.3666 97.3394 33.8017 96.6218 34.1101C95.8682 34.427 95.058 34.5853 94.2413 34.5753C93.4421 34.5823 92.6489 34.4356 91.9045 34.143C91.2179 33.8777 90.5922 33.4746 90.0656 32.9582C89.539 32.4417 89.1226 31.8229 88.8417 31.1394C88.5448 30.4313 88.3947 29.6697 88.4007 28.9013C88.3949 28.1339 88.5413 27.373 88.8312 26.663C89.1049 25.9877 89.5094 25.3739 90.0212 24.8573C90.5315 24.3456 91.1338 23.9358 91.796 23.6497C92.4924 23.3502 93.2432 23.1994 94.0007 23.2068V23.2068ZM93.9334 25.1791C93.1925 25.1602 92.4705 25.4166 91.9057 25.8992C91.3332 26.4033 90.9452 27.086 90.804 27.8379L96.689 27.8389C96.6974 27.468 96.6259 27.0996 96.4794 26.7591C96.3329 26.4186 96.1148 26.114 95.8402 25.8663C95.3097 25.4104 94.6312 25.1659 93.9334 25.1791V25.1791Z" fill="#141927"/>
<path d="M106.52 23.3415C106.686 23.3399 106.852 23.3511 107.016 23.375C107.156 23.397 107.284 23.4228 107.402 23.4525L107.401 25.5134L106.696 25.5131C106.281 25.5113 105.868 25.575 105.473 25.7017C105.1 25.8177 104.754 26.01 104.459 26.2664C104.165 26.5265 103.932 26.8479 103.775 27.2082C103.598 27.6246 103.512 28.074 103.521 28.5267L103.52 34.3328L101.206 34.3325L101.208 23.4516L103.346 23.4519L103.345 24.9147C103.709 24.4134 104.19 24.01 104.746 23.74C105.299 23.4738 105.906 23.3375 106.52 23.3415V23.3415Z" fill="#141927"/>
</svg>
