<svg width="160" height="57" viewBox="0 0 160 57" fill="none" xmlns="http://www.w3.org/2000/svg">
<path d="M95.4096 45.08H94.0536L92.2056 50.36L91.7256 51.92L91.2456 50.348L89.3976 45.08H88.0296L90.9696 53H92.4696L95.4096 45.08ZM96.5158 53H102.024V51.896H99.5278C99.2038 51.896 98.5198 51.92 98.2198 51.944V51.92C100.848 50.24 101.88 48.968 101.88 47.456C101.88 46.064 100.884 44.96 99.1318 44.96C97.4638 44.96 96.4198 45.92 96.2638 47.42L97.3798 47.936C97.4638 46.784 98.0638 46.076 99.0598 46.076C99.9958 46.076 100.56 46.664 100.56 47.504C100.56 48.824 99.5518 49.916 96.5158 52.052V53ZM112.595 53H113.951L110.963 45.08H109.427L106.439 53H107.759L108.515 50.924H111.851L112.595 53ZM108.887 49.88L109.823 47.312L110.159 46.196H110.195L110.555 47.336L111.467 49.88H108.887ZM118.404 46.88C117.54 46.88 116.784 47.216 116.376 48.008L116.316 47H115.176V53H116.46V49.82C116.46 48.44 117.3 47.936 118.092 47.936C118.824 47.936 119.376 48.332 119.376 49.52V53H120.66V49.112C120.66 47.612 119.676 46.88 118.404 46.88ZM127.789 52.16C127.465 52.16 127.345 52.016 127.345 51.716V49.004C127.345 47.564 126.313 46.88 124.813 46.88C123.505 46.88 122.581 47.492 122.293 48.44L123.289 48.968C123.541 48.212 124.093 47.888 124.837 47.888C125.617 47.888 126.061 48.356 126.061 49.076V49.388L124.537 49.664C122.965 49.94 122.197 50.624 122.197 51.548C122.197 52.592 123.025 53.12 124.153 53.12C125.041 53.12 125.809 52.796 126.181 52.22C126.313 52.88 126.757 53.12 127.405 53.12C127.705 53.12 127.957 53.06 128.149 52.976L128.233 52.112C128.101 52.148 127.945 52.16 127.789 52.16ZM124.429 52.148C123.865 52.148 123.529 51.908 123.529 51.464C123.529 50.984 123.937 50.708 124.753 50.552L126.061 50.288V51.008C126.061 51.728 125.233 52.148 124.429 52.148ZM130.697 44.3H129.413V51.428C129.413 52.592 129.905 53.12 130.973 53.12C131.321 53.12 131.705 53.048 131.969 52.916L132.113 51.884C131.801 52.004 131.621 52.04 131.321 52.04C130.841 52.04 130.697 51.836 130.697 51.248V44.3ZM138.318 47H136.986L135.738 50.66L135.33 51.896L134.982 50.768L133.662 47H132.222L134.094 51.548L134.718 53.036L134.454 53.684C134.19 54.38 133.854 54.548 133.41 54.548C133.038 54.548 132.702 54.452 132.426 54.116L132.054 55.1C132.414 55.436 132.846 55.58 133.47 55.58C134.55 55.58 135.162 55.1 135.69 53.708L138.318 47ZM143.057 51.668C142.793 51.908 142.493 52.052 142.085 52.052C141.557 52.052 141.209 51.788 141.209 51.2V48.008H143.309V47H141.209V45.236L139.925 45.596V47H138.785V48.008H139.925V51.416C139.937 52.652 140.729 53.12 141.761 53.12C142.409 53.12 142.973 52.928 143.357 52.604L143.057 51.668ZM145.203 45.992C145.755 45.992 146.055 45.692 146.055 45.188C146.055 44.684 145.755 44.396 145.203 44.396C144.651 44.396 144.339 44.684 144.339 45.188C144.339 45.692 144.651 45.992 145.203 45.992ZM145.839 47H144.555V53H145.839V47ZM150.488 46.88C148.616 46.88 147.5 48.044 147.5 50C147.5 51.956 148.616 53.12 150.512 53.12C151.904 53.12 152.804 52.424 153.14 51.332L151.964 50.936C151.808 51.68 151.316 52.1 150.488 52.1C149.432 52.1 148.796 51.368 148.796 50.012C148.796 48.656 149.42 47.9 150.488 47.9C151.232 47.9 151.688 48.296 151.892 49.04L153.092 48.56C152.72 47.576 151.94 46.88 150.488 46.88ZM156.816 53.12C158.472 53.12 159.432 52.364 159.432 51.308C159.432 50.312 158.82 49.796 157.104 49.484C155.976 49.28 155.628 49.052 155.628 48.62C155.628 48.248 156.132 47.888 156.876 47.888C157.656 47.888 158.172 48.188 158.472 48.908L159.384 48.236C158.952 47.312 158.196 46.88 156.864 46.88C155.256 46.88 154.344 47.768 154.344 48.74C154.344 49.748 154.968 50.264 156.756 50.6C157.8 50.804 158.148 51.02 158.148 51.392C158.148 51.8 157.716 52.112 156.864 52.112C156.024 52.112 155.316 51.836 155.004 51.116L154.14 51.86C154.644 52.736 155.652 53.12 156.816 53.12Z" fill="#A7B6BD"/>
<path d="M15.8064 26.4892L35.4915 37.8398C35.649 37.9293 35.8269 37.9761 36.0078 37.9756C36.1887 37.9751 36.3663 37.9273 36.5233 37.8369C36.6802 37.7466 36.8111 37.6167 36.9031 37.4602C36.9951 37.3036 37.045 37.1256 37.0479 36.9438L37.0513 16.0417C37.0493 15.8595 37 15.681 36.9083 15.5239C36.8165 15.3668 36.6856 15.2364 36.5283 15.1459C36.3711 15.0553 36.1931 15.0076 36.0119 15.0074C35.8307 15.0073 35.6526 15.0548 35.4952 15.1452L15.8064 26.4892Z" fill="#31CB9E"/>
<path d="M34.3475 10.2537L21.2799 0.210655C21.1405 0.105358 20.9771 0.0368035 20.8045 0.0112356C20.632 -0.0143323 20.4559 0.003899 20.2922 0.0642694C20.1285 0.12464 19.9824 0.225231 19.8672 0.356879C19.7521 0.488527 19.6715 0.64705 19.6329 0.818007L14.8548 23.1777L34.2415 11.9855C34.3914 11.9012 34.5179 11.7804 34.6093 11.6342C34.7008 11.488 34.7542 11.3211 34.7648 11.1487C34.7753 10.9763 34.7427 10.8041 34.6698 10.6477C34.5969 10.4913 34.4861 10.3558 34.3475 10.2537Z" fill="#31CB9E"/>
<path d="M21.2712 52.7845L34.3723 42.7305C34.5078 42.6264 34.6157 42.4904 34.6865 42.3345C34.7573 42.1785 34.7889 42.0075 34.7785 41.8364C34.7681 41.6653 34.716 41.4994 34.6267 41.3533C34.5375 41.2073 34.4139 41.0855 34.2668 40.9988L14.8536 29.8154L19.6395 52.1766C19.6746 52.3481 19.7524 52.5077 19.8658 52.6405C19.9792 52.7733 20.1244 52.8749 20.2876 52.9357C20.4508 52.9966 20.6268 53.0146 20.7989 52.9881C20.9709 52.9617 21.1335 52.8916 21.2712 52.7845Z" fill="#31CB9E"/>
<path d="M10.7597 26.4885L15.9158 2.39725C15.9606 2.18858 15.9402 1.9711 15.8575 1.77449C15.7748 1.57789 15.6337 1.41173 15.4536 1.29871C15.2735 1.18569 15.0631 1.13132 14.8511 1.14301C14.639 1.15469 14.4358 1.23188 14.269 1.36402L1.07725 11.4939C0.743022 11.7509 0.472305 12.082 0.286179 12.4613C0.100052 12.8407 0.00353824 13.2582 0.00415445 13.6812L4.37658e-06 39.338C-0.00074845 39.761 0.09563 40.1785 0.281634 40.5579C0.467638 40.9374 0.738248 41.2685 1.07239 41.5256L14.2609 51.6446C14.4289 51.7713 14.631 51.8439 14.8407 51.853C15.0505 51.8621 15.2581 51.8072 15.4362 51.6955C15.6144 51.5838 15.7548 51.4205 15.839 51.2271C15.9232 51.0338 15.9472 50.8193 15.908 50.612L10.7597 26.4885Z" fill="#31CB9E"/>
<path d="M113.428 19.464C114.37 19.4446 115.301 19.6764 116.126 20.1358C116.95 20.5952 117.639 21.2659 118.122 22.0797L116.491 23.3427C116.143 22.8138 115.684 22.3676 115.146 22.035C114.627 21.7233 114.032 21.5621 113.427 21.5692C112.882 21.5572 112.345 21.7075 111.884 22.0012C111.666 22.1458 111.49 22.3461 111.374 22.5816C111.257 22.8172 111.205 23.0795 111.223 23.3418C111.216 23.5908 111.269 23.8378 111.377 24.0619C111.482 24.2642 111.624 24.4446 111.796 24.5937C111.99 24.7612 112.205 24.9028 112.435 25.0151C112.685 25.141 112.956 25.2777 113.25 25.4251L114.881 26.1789C115.391 26.4118 115.884 26.6784 116.358 26.9771C116.766 27.2304 117.137 27.5399 117.46 27.8966C117.748 28.2209 117.979 28.592 118.143 28.994C118.31 29.4246 118.393 29.8837 118.386 30.3458C118.395 30.954 118.266 31.5564 118.01 32.1075C117.767 32.6226 117.414 33.0767 116.974 33.4369C116.512 33.8107 115.985 34.096 115.42 34.2785C114.798 34.4825 114.146 34.5834 113.491 34.5774C112.354 34.5992 111.232 34.3038 110.251 33.724C109.316 33.1602 108.541 32.3621 108.004 31.4076L109.657 30.1448C109.865 30.4583 110.097 30.7547 110.351 31.0314C110.606 31.3101 110.89 31.5591 111.2 31.7738C111.515 31.9919 111.86 32.1637 112.224 32.2839C112.627 32.4138 113.047 32.4774 113.47 32.4722C114.119 32.5033 114.76 32.312 115.288 31.9295C115.515 31.7549 115.696 31.5277 115.817 31.2674C115.938 31.0071 115.995 30.7213 115.983 30.4342C115.988 30.1782 115.935 29.9244 115.829 29.6918C115.723 29.4741 115.573 29.2813 115.388 29.1262C115.179 28.9524 114.954 28.8001 114.715 28.6719C114.458 28.5317 114.168 28.3877 113.845 28.2399L112.237 27.486C111.783 27.2738 111.342 27.0369 110.914 26.7765C110.517 26.5377 110.154 26.247 109.834 25.912C109.529 25.5925 109.283 25.2211 109.107 24.8152C108.924 24.3769 108.834 23.9053 108.843 23.4302C108.834 22.8624 108.959 22.3005 109.206 21.7901C109.445 21.3071 109.783 20.8805 110.198 20.5385C110.63 20.1844 111.124 19.9139 111.654 19.7406C112.226 19.5529 112.825 19.4594 113.428 19.464Z" fill="white"/>
<path d="M131.346 30.5033L134.146 23.4565L136.593 23.4571L131.808 34.5808H131.014L127.599 27.3117L124.226 34.5796H123.432L118.629 23.454L121.097 23.4543L123.939 30.5684L127.225 23.2118H128.018L131.346 30.5033Z" fill="white"/>
<path d="M141.971 23.2147C142.585 23.2075 143.196 23.305 143.778 23.5031C144.301 23.6825 144.778 23.9737 145.177 24.3565C145.582 24.7566 145.894 25.2409 146.092 25.7753C146.324 26.41 146.436 27.0826 146.423 27.7587L146.422 34.3403L144.261 34.34V33.1213C143.866 33.5885 143.368 33.9564 142.807 34.1955C142.172 34.463 141.489 34.595 140.801 34.5831C140.274 34.5896 139.75 34.5147 139.247 34.3611C138.811 34.2285 138.407 34.01 138.057 33.7183C137.733 33.4467 137.473 33.106 137.296 32.721C137.115 32.3172 137.025 31.8783 137.032 31.4356C137.015 30.9973 137.105 30.5616 137.293 30.166C137.481 29.7703 137.763 29.4266 138.112 29.1644C138.964 28.5706 139.987 28.2785 141.022 28.3339L144.085 28.3342L144.086 27.625C144.123 27.3104 144.089 26.9914 143.986 26.6919C143.883 26.3925 143.714 26.1205 143.491 25.8965C143.268 25.6724 142.997 25.5021 142.7 25.3984C142.402 25.2947 142.084 25.2602 141.772 25.2977C141.193 25.2842 140.621 25.4297 140.119 25.7185C139.602 26.04 139.14 26.4442 138.752 26.9152L137.429 25.5411C137.935 24.7892 138.627 24.1821 139.436 23.7794C140.227 23.4 141.094 23.2068 141.971 23.2147ZM141.285 32.7882C141.654 32.7907 142.02 32.7269 142.366 32.6C142.694 32.4806 142.996 32.3002 143.258 32.0682C143.515 31.8403 143.722 31.5611 143.865 31.2483C144.013 30.9253 144.088 30.5734 144.085 30.2178V30.0184L141.308 30.0181C140.812 29.9877 140.318 30.1031 139.886 30.3502C139.724 30.4583 139.593 30.6073 139.506 30.7823C139.419 30.9573 139.379 31.1522 139.39 31.3475C139.38 31.5596 139.425 31.7706 139.522 31.9594C139.619 32.1481 139.763 32.3078 139.941 32.4223C140.343 32.676 140.811 32.8034 141.285 32.7882H141.285Z" fill="white"/>
<path d="M154.689 23.2158C155.42 23.2092 156.145 23.3565 156.816 23.6484C157.454 23.9258 158.028 24.3333 158.502 24.8451C158.98 25.3675 159.354 25.977 159.604 26.6406C159.874 27.3589 160.008 28.1218 160 28.8898C160.007 29.6613 159.873 30.4277 159.603 31.1501C159.354 31.8198 158.975 32.4336 158.49 32.9561C158.003 33.4776 157.413 33.8916 156.758 34.1718C156.104 34.4521 155.399 34.5925 154.687 34.5842C153.98 34.5924 153.279 34.4566 152.626 34.1851C152.022 33.9343 151.489 33.5385 151.072 33.0324L151.072 38.3287L148.758 38.3284L148.76 23.4586L150.898 23.4589L150.897 25.0324C151.299 24.4522 151.847 23.9897 152.485 23.6918C153.175 23.3683 153.928 23.2055 154.689 23.2158ZM154.314 25.3431C153.912 25.3441 153.513 25.4152 153.134 25.5534C152.746 25.6937 152.389 25.9124 152.088 26.1962C151.764 26.5051 151.509 26.8786 151.338 27.2927C151.135 27.7992 151.037 28.3422 151.051 28.8882C151.038 29.4332 151.131 29.9755 151.326 30.484C151.493 30.9012 151.744 31.2788 152.065 31.5923C152.364 31.882 152.72 32.1048 153.111 32.246C153.496 32.3858 153.903 32.4572 154.313 32.4569C154.755 32.4594 155.193 32.3728 155.602 32.2023C156 32.0369 156.36 31.7918 156.661 31.4819C156.968 31.1607 157.209 30.7801 157.366 30.363C157.703 29.425 157.703 28.398 157.367 27.4598C157.21 27.0448 156.974 26.6646 156.672 26.3407C156.376 26.0288 156.02 25.7801 155.625 25.6095C155.211 25.4299 154.765 25.3392 154.314 25.3431V25.3431Z" fill="white"/>
<path d="M54.3017 34.3244L51.9656 34.3241L51.9681 19.6981L54.3042 19.6984L54.3017 34.3244ZM57.2788 26.5464L64.0003 34.326L61.1127 34.3253L54.369 26.5461L60.4761 19.6993L63.3415 19.6999L57.2788 26.5464Z" fill="white"/>
<path d="M69.1362 35.5687C68.7955 36.4602 68.2293 37.2468 67.4934 37.8507C66.8084 38.3376 65.9841 38.5865 65.1456 38.5596C64.8435 38.5587 64.5418 38.5402 64.2418 38.5041C63.9446 38.469 63.65 38.4135 63.3603 38.3379V36.3656C63.625 36.3948 63.8602 36.4169 64.066 36.432C64.2714 36.4466 64.4697 36.4539 64.6607 36.454C65.1239 36.4629 65.582 36.3565 65.9944 36.1442C66.4659 35.839 66.8259 35.388 67.0202 34.8591L67.4607 33.8398L63.1425 23.4455L65.6329 23.4461L68.7179 31.3801L71.9374 23.447L74.4055 23.4473L69.1362 35.5687Z" fill="white"/>
<path d="M77.9317 24.7773C78.3566 24.2801 78.8881 23.8862 79.4862 23.6253C80.1357 23.3395 80.8383 23.1961 81.5472 23.2044C82.2586 23.1964 82.9639 23.3371 83.6184 23.6176C84.2728 23.8981 84.8622 24.3122 85.3491 24.8337C85.8344 25.3566 86.2126 25.9705 86.4619 26.6404C86.7312 27.3629 86.8655 28.1292 86.8579 28.9007C86.866 29.6687 86.7315 30.4315 86.4613 31.1499C86.211 31.8134 85.8368 32.4226 85.3589 32.9448C84.8879 33.4548 84.3176 33.862 83.6835 34.1412C83.0164 34.4335 82.2953 34.5806 81.5676 34.5728C80.8042 34.5823 80.048 34.4233 79.3524 34.1071C78.7093 33.8181 78.1567 33.3584 77.754 32.7773V34.3285L75.6166 34.3282L75.619 17.7076L77.9329 17.7079L77.9317 24.7773ZM81.1722 25.3317C80.7625 25.3315 80.356 25.4027 79.9705 25.542C79.5797 25.6835 79.223 25.9063 78.9236 26.1957C78.6033 26.5091 78.3517 26.8866 78.1852 27.3037C77.9897 27.8121 77.896 28.3543 77.9095 28.8992C77.8962 29.4486 77.9936 29.9951 78.1957 30.5058C78.3646 30.9245 78.6201 31.3023 78.9452 31.6141C79.2452 31.8973 79.6019 32.1127 79.9915 32.2458C80.371 32.3772 80.7695 32.4447 81.1709 32.4455C81.6217 32.4494 82.0683 32.3588 82.4824 32.1798C82.8768 32.0091 83.233 31.7604 83.5299 31.4485C83.8319 31.1248 84.0679 30.7447 84.2245 30.3297C84.5615 29.3918 84.5617 28.3649 84.2251 27.4268C84.0674 27.0096 83.8274 26.6288 83.5194 26.3073C83.219 25.9975 82.8591 25.7524 82.4615 25.587C82.053 25.4161 81.6146 25.3293 81.1722 25.3318V25.3317Z" fill="white"/>
<path d="M94.0007 23.207C94.6871 23.2006 95.3683 23.3287 96.0061 23.584C96.5992 23.8172 97.1382 24.1708 97.5893 24.6226C98.0405 25.0745 98.3943 25.6149 98.6285 26.2103C98.8817 26.8403 99.009 27.5143 99.0029 28.1937C99.0035 28.4754 98.985 28.7568 98.9474 29.036C98.9218 29.2453 98.8814 29.4526 98.8265 29.6562L90.7589 29.6549C90.8782 30.4824 91.3034 31.2342 91.9495 31.7605C92.618 32.2755 93.4433 32.5419 94.285 32.5144C94.8758 32.523 95.4616 32.406 96.0043 32.1712C96.5288 31.9358 97.0127 31.618 97.4379 31.2297L98.5612 32.8255C97.9962 33.3667 97.3393 33.8018 96.6218 34.1103C95.8682 34.4271 95.058 34.5854 94.2412 34.5754C93.442 34.5824 92.6489 34.4357 91.9045 34.1431C91.2178 33.8778 90.5921 33.4747 90.0656 32.9583C89.539 32.4419 89.1225 31.823 88.8417 31.1395C88.5448 30.4314 88.3947 29.6699 88.4006 28.9015C88.3948 28.134 88.5412 27.3731 88.8312 26.6631C89.1048 25.9879 89.5093 25.374 90.0211 24.8574C90.5315 24.3457 91.1337 23.936 91.7959 23.6499C92.4924 23.3503 93.2432 23.1995 94.0007 23.207ZM93.9334 25.1792C93.1924 25.1603 92.4705 25.4167 91.9057 25.8993C91.3331 26.4035 90.9452 27.0861 90.804 27.8381L96.689 27.839C96.6974 27.4681 96.6259 27.0997 96.4794 26.7592C96.3329 26.4187 96.1148 26.1142 95.8402 25.8664C95.3096 25.4105 94.6312 25.166 93.9334 25.1792Z" fill="white"/>
<path d="M106.52 23.3415C106.686 23.34 106.852 23.3512 107.016 23.375C107.156 23.3971 107.284 23.4229 107.402 23.4526L107.401 25.5135L106.696 25.5132C106.281 25.5114 105.868 25.575 105.473 25.7017C105.1 25.8178 104.755 26.0101 104.459 26.2664C104.165 26.5266 103.932 26.848 103.775 27.2082C103.598 27.6246 103.512 28.0741 103.521 28.5268L103.52 34.3328L101.207 34.3325L101.208 23.4517L103.346 23.452L103.345 24.9147C103.709 24.4135 104.19 24.0101 104.746 23.7401C105.3 23.4739 105.906 23.3376 106.52 23.3415Z" fill="white"/>
</svg>
