<svg width="24" height="24" viewBox="0 0 24 24" fill="none" xmlns="http://www.w3.org/2000/svg">
<path fill-rule="evenodd" clip-rule="evenodd" d="M19.0005 8.0005L21 5.9995L19.0005 4" fill="#31CB9E"/>
<path d="M19.0005 18.979L21 16.9795L19.0005 14.9785M10.182 8.9995L8.6025 6.8275C8.2245 6.3085 7.6185 6.0025 6.9765 6.004L3 6.0205M19.0005 8.0005L21 5.9995L19.0005 4" stroke="#31CB9E" stroke-width="2" stroke-linecap="round" stroke-linejoin="round"/>
<path d="M13.818 14.0005L15.3975 16.1725C15.7755 16.6915 16.3815 16.9975 17.0235 16.996L21 16.9795M21 6.02049L17.025 6.00399C16.38 6.00099 15.7755 6.30849 15.3975 6.82899L8.6025 16.1725C8.2245 16.6915 7.6185 16.9975 6.9765 16.996L3 16.9795" stroke="#31CB9E" stroke-width="2" stroke-linecap="round" stroke-linejoin="round"/>
</svg>
